<?xml version="1.0" encoding="UTF-8" standalone="no"?>
<!DOCTYPE svg PUBLIC "-//W3C//DTD SVG 1.1//EN"
 "http://www.w3.org/Graphics/SVG/1.1/DTD/svg11.dtd">
<!-- Generated by graphviz version 2.40.1 (20161225.0304)
 -->
<!-- Title: flowchart Pages: 1 -->
<svg width="685pt" height="260pt"
 viewBox="0.00 0.00 685.00 260.00" xmlns="http://www.w3.org/2000/svg" xmlns:xlink="http://www.w3.org/1999/xlink">
<g id="graph0" class="graph" transform="scale(1 1) rotate(0) translate(4 256)">
<title>flowchart</title>
<polygon fill="#ffffff" stroke="transparent" points="-4,4 -4,-256 681.0005,-256 681.0005,4 -4,4"/>
<!-- node1 -->
<g id="node1" class="node">
<title>node1</title>
<polygon fill="none" stroke="#000000" points="524.0096,-252 152.9909,-252 152.9909,-216 524.0096,-216 524.0096,-252"/>
<text text-anchor="middle" x="338.5003" y="-229.5" font-family="Helvetica,sans-Serif" font-size="15.00" fill="#000000">Adolescents ages 12&#45;17 in NSDUH 2023 (N = 11572)</text>
</g>
<!-- node2 -->
<g id="node2" class="node">
<title>node2</title>
<polygon fill="none" stroke="#000000" points="639.1038,-180 37.8967,-180 37.8967,-144 639.1038,-144 639.1038,-180"/>
<text text-anchor="middle" x="338.5003" y="-157.5" font-family="Helvetica,sans-Serif" font-size="15.00" fill="#000000">Excluding missing perceived risk (RSKMRJWK): n excluded = 305; n remaining = 11267</text>
</g>
<!-- node1&#45;&gt;node2 -->
<g id="edge1" class="edge">
<title>node1&#45;&gt;node2</title>
<path fill="none" stroke="#000000" d="M338.5003,-215.8314C338.5003,-208.131 338.5003,-198.9743 338.5003,-190.4166"/>
<polygon fill="#000000" stroke="#000000" points="342.0003,-190.4132 338.5003,-180.4133 335.0003,-190.4133 342.0003,-190.4132"/>
</g>
<!-- node3 -->
<g id="node3" class="node">
<title>node3</title>
<polygon fill="none" stroke="#000000" points="677.0008,-108 -.0003,-108 -.0003,-72 677.0008,-72 677.0008,-108"/>
<text text-anchor="middle" x="338.5003" y="-85.5" font-family="Helvetica,sans-Serif" font-size="15.00" fill="#000000">Excluding missing past 30&#45;day marijuana use (MJDAY30A): n excluded = 115; n remaining = 11152</text>
</g>
<!-- node2&#45;&gt;node3 -->
<g id="edge2" class="edge">
<title>node2&#45;&gt;node3</title>
<path fill="none" stroke="#000000" d="M338.5003,-143.8314C338.5003,-136.131 338.5003,-126.9743 338.5003,-118.4166"/>
<polygon fill="#000000" stroke="#000000" points="342.0003,-118.4132 338.5003,-108.4133 335.0003,-118.4133 342.0003,-118.4132"/>
</g>
<!-- node4 -->
<g id="node4" class="node">
<title>node4</title>
<polygon fill="none" stroke="#000000" points="606.6178,-36 70.3827,-36 70.3827,0 606.6178,0 606.6178,-36"/>
<text text-anchor="middle" x="338.5003" y="-13.5" font-family="Helvetica,sans-Serif" font-size="15.00" fill="#000000">Excluding missing sex (IRSEX): n excluded = 0; Final analytic sample = 11152</text>
</g>
<!-- node3&#45;&gt;node4 -->
<g id="edge3" class="edge">
<title>node3&#45;&gt;node4</title>
<path fill="none" stroke="#000000" d="M338.5003,-71.8314C338.5003,-64.131 338.5003,-54.9743 338.5003,-46.4166"/>
<polygon fill="#000000" stroke="#000000" points="342.0003,-46.4132 338.5003,-36.4133 335.0003,-46.4133 342.0003,-46.4132"/>
</g>
</g>
</svg>

